<?xml version="1.0" encoding="UTF-8" standalone="no"?>
<svg
   viewBox="0 0 20 25"
   x="0px"
   y="0px"
   version="1.1"
   id="svg10"
   sodipodi:docname="noun_Doctor_4375465.svg"
   inkscape:version="1.1 (c4e8f9e, 2021-05-24)"
   xmlns:inkscape="http://www.inkscape.org/namespaces/inkscape"
   xmlns:sodipodi="http://sodipodi.sourceforge.net/DTD/sodipodi-0.dtd"
   xmlns="http://www.w3.org/2000/svg"
   xmlns:svg="http://www.w3.org/2000/svg">
  <defs
     id="defs14" />
  <sodipodi:namedview
     id="namedview12"
     pagecolor="#ffffff"
     bordercolor="#666666"
     borderopacity="1.0"
     inkscape:pageshadow="2"
     inkscape:pageopacity="0.0"
     inkscape:pagecheckerboard="0"
     showgrid="false"
     inkscape:zoom="22.68"
     inkscape:cx="1.3447972"
     inkscape:cy="12.5"
     inkscape:window-width="1296"
     inkscape:window-height="787"
     inkscape:window-x="0"
     inkscape:window-y="25"
     inkscape:window-maximized="0"
     inkscape:current-layer="svg10" />
  <g
     id="g4"
     style="fill:#61dbfb;fill-opacity:1">
    <path
       d="M14.968,5.194H12.4V4.8a1.5,1.5,0,0,0-1.5-1.5H9.1A1.5,1.5,0,0,0,7.6,4.8v.4H5.032a2.5,2.5,0,0,0-2.5,2.5V14.2a2.5,2.5,0,0,0,2.5,2.5h9.936a2.5,2.5,0,0,0,2.5-2.5V7.694A2.5,2.5,0,0,0,14.968,5.194ZM8.6,4.8a.5.5,0,0,1,.5-.5H10.9a.5.5,0,0,1,.5.5v.4H8.6ZM16.468,14.2a1.5,1.5,0,0,1-1.5,1.5H5.032a1.5,1.5,0,0,1-1.5-1.5V7.694a1.5,1.5,0,0,1,1.5-1.5h9.936a1.5,1.5,0,0,1,1.5,1.5Zm-4.434-3.255a.5.5,0,0,1-.5.5H10.5v1.034a.5.5,0,0,1-1,0V11.448H8.466a.5.5,0,1,1,0-1H9.5V9.414a.5.5,0,0,1,1,0v1.034h1.034A.5.5,0,0,1,12.034,10.948Z"
       id="path2"
       style="fill:#61dbfb;fill-opacity:1" />
  </g>
  <text
     x="0"
     y="35"
     fill="#000000"
     font-size="5px"
     font-weight="bold"
     font-family="'Helvetica Neue', Helvetica, Arial-Unicode, Arial, Sans-serif"
     id="text6">Created by The Icon Z</text>
  <text
     x="0"
     y="40"
     fill="#000000"
     font-size="5px"
     font-weight="bold"
     font-family="'Helvetica Neue', Helvetica, Arial-Unicode, Arial, Sans-serif"
     id="text8">from the Noun Project</text>
</svg>
